<svg width="20" height="20" viewBox="0 0 20 20" fill="none" xmlns="http://www.w3.org/2000/svg">
<path d="M13.4917 1.66669H6.50834C3.47501 1.66669 1.66667 3.47502 1.66667 6.50835V13.4917C1.66667 16.525 3.47501 18.3334 6.50834 18.3334H13.4917C16.525 18.3334 18.3333 16.525 18.3333 13.4917V6.50835C18.3333 3.47502 16.525 1.66669 13.4917 1.66669ZM6.45834 11.3334C6.45834 11.675 6.17501 11.9584 5.83334 11.9584C5.49167 11.9584 5.20834 11.675 5.20834 11.3334V8.66669C5.20834 8.32502 5.49167 8.04169 5.83334 8.04169C6.17501 8.04169 6.45834 8.32502 6.45834 8.66669V11.3334ZM10.625 12.7834C10.625 13.125 10.3417 13.4084 10 13.4084C9.65834 13.4084 9.37501 13.125 9.37501 12.7834V7.21669C9.37501 6.87502 9.65834 6.59169 10 6.59169C10.3417 6.59169 10.625 6.87502 10.625 7.21669V12.7834ZM14.7917 11.3334C14.7917 11.675 14.5083 11.9584 14.1667 11.9584C13.825 11.9584 13.5417 11.675 13.5417 11.3334V8.66669C13.5417 8.32502 13.825 8.04169 14.1667 8.04169C14.5083 8.04169 14.7917 8.32502 14.7917 8.66669V11.3334Z" fill="#292D32"/>
</svg>
