<svg width="18" height="18" viewBox="0 0 18 18" fill="none" xmlns="http://www.w3.org/2000/svg">
<path d="M15.7002 4.68471L10.9002 1.32637C9.59183 0.409706 7.5835 0.459706 6.32519 1.43471L2.15019 4.69304C1.31686 5.34304 0.658524 6.67637 0.658524 7.72633V13.4763C0.658524 15.6013 2.38352 17.3347 4.50852 17.3347H13.4918C15.6168 17.3347 17.3418 15.6097 17.3418 13.4847V7.83466C17.3418 6.70971 16.6168 5.32637 15.7002 4.68471ZM9.62517 14.0013C9.62517 14.343 9.34183 14.6263 9.00017 14.6263C8.6585 14.6263 8.37517 14.343 8.37517 14.0013V11.5013C8.37517 11.1597 8.6585 10.8763 9.00017 10.8763C9.34183 10.8763 9.62517 11.1597 9.62517 11.5013V14.0013Z" fill="#929EAE"/>
</svg>
