<svg width="16" height="18" viewBox="0 0 16 18" fill="none" xmlns="http://www.w3.org/2000/svg">
<path d="M11.15 0.666687H4.85001C1.70001 0.666687 0.916672 1.50835 0.916672 4.86669V14.25C0.916672 16.4667 2.13334 16.9917 3.60834 15.4084L3.61667 15.4C4.30001 14.675 5.34167 14.7334 5.93334 15.525L6.77501 16.65C7.45001 17.5417 8.54167 17.5417 9.21667 16.65L10.0583 15.525C10.6583 14.725 11.7 14.6667 12.3833 15.4C13.8667 16.9834 15.075 16.4584 15.075 14.2417V4.86669C15.0833 1.50835 14.3 0.666687 11.15 0.666687ZM10.2917 7.95835H5.70834C5.36667 7.95835 5.08334 7.67502 5.08334 7.33335C5.08334 6.99169 5.36667 6.70835 5.70834 6.70835H10.2917C10.6333 6.70835 10.9167 6.99169 10.9167 7.33335C10.9167 7.67502 10.6333 7.95835 10.2917 7.95835Z" fill="#292D32"/>
</svg>
