<svg width="16" height="18" viewBox="0 0 16 18" fill="none" xmlns="http://www.w3.org/2000/svg">
<path d="M11.15 0.666687H4.85C1.7 0.666687 0.916664 1.50835 0.916664 4.86669V14.25C0.916664 16.4667 2.13333 16.9917 3.60833 15.4084L3.61666 15.4C4.3 14.675 5.34167 14.7334 5.93333 15.525L6.775 16.65C7.45 17.5417 8.54167 17.5417 9.21667 16.65L10.0583 15.525C10.6583 14.725 11.7 14.6667 12.3833 15.4C13.8667 16.9834 15.075 16.4584 15.075 14.2417V4.86669C15.0833 1.50835 14.3 0.666687 11.15 0.666687ZM10.2917 7.95835H5.70833C5.36666 7.95835 5.08333 7.67502 5.08333 7.33335C5.08333 6.99169 5.36666 6.70835 5.70833 6.70835H10.2917C10.6333 6.70835 10.9167 6.99169 10.9167 7.33335C10.9167 7.67502 10.6333 7.95835 10.2917 7.95835Z" fill="#929EAE"/>
</svg>
