<svg width="26" height="26" viewBox="0 0 26 26" fill="none" xmlns="http://www.w3.org/2000/svg">
<path d="M5.96154 11C4.87615 11 4 11.8933 4 13C4 14.1067 4.87615 15 5.96154 15C7.04692 15 7.92308 14.1067 7.92308 13C7.92308 11.8933 7.04692 11 5.96154 11ZM19.0385 11C17.9531 11 17.0769 11.8933 17.0769 13C17.0769 14.1067 17.9531 15 19.0385 15C20.1238 15 21 14.1067 21 13C21 11.8933 20.1238 11 19.0385 11ZM12.5 11C11.4146 11 10.5385 11.8933 10.5385 13C10.5385 14.1067 11.4146 15 12.5 15C13.5854 15 14.4615 14.1067 14.4615 13C14.4615 11.8933 13.5854 11 12.5 11Z" fill="#929EAE"/>
</svg>
